<svg width="952" height="340" viewBox="0 0 952 340" fill="none" xmlns="http://www.w3.org/2000/svg">
<rect width="952" height="340" fill="white"/>
<path d="M232.576 129.726V106.297H332.864V129.726H298.107V232.815H267.152V129.726H232.576Z" fill="#1A3B5C"/>
<path d="M448.25 145.045C448.25 153.576 445.173 161.806 439.018 169.736C435.76 173.821 430.872 177.185 424.355 179.829C417.959 182.352 410.355 183.613 401.546 183.613H382.357V232.815H351.401V106.297H401.546C416.269 106.297 427.734 110.081 435.941 117.651C444.147 125.22 448.25 134.352 448.25 145.045ZM382.357 160.184H401.546C406.252 160.184 409.933 158.802 412.588 156.039C415.364 153.275 416.752 149.671 416.752 145.225C416.752 140.66 415.364 136.935 412.588 134.051C409.812 131.168 406.132 129.726 401.546 129.726H382.357V160.184Z" fill="#1A3B5C"/>
<path d="M478.246 215.693C465.694 203.438 459.419 187.939 459.419 169.195C459.419 150.452 465.694 135.013 478.246 122.877C490.917 110.622 506.365 104.494 524.588 104.494C538.708 104.494 551.26 108.219 562.242 115.668C573.224 123.118 580.888 133.451 585.232 146.667H548.303C543.475 137.416 535.752 132.79 525.131 132.79C514.511 132.79 506.124 136.094 499.969 142.702C493.935 149.31 490.917 158.141 490.917 169.195C490.917 180.249 493.935 189.08 499.969 195.688C506.124 202.297 514.33 205.601 524.588 205.601C531.95 205.601 537.924 203.799 542.51 200.194C547.217 196.469 550.354 191.543 551.923 185.416L524.588 177.396V161.986H585.232V185.416C582.939 196.95 576.603 207.703 566.224 217.676C561.276 222.482 555.122 226.387 547.76 229.391C540.519 232.394 532.795 233.896 524.588 233.896C506.365 233.896 490.917 227.829 478.246 215.693Z" fill="#1A3B5C"/>
<rect x="617.862" y="104.494" width="101.563" height="130.119" fill="#ECCB49"/>
<circle cx="617.861" cy="121.78" r="17.2857" fill="#3878BC"/>
<path d="M617.862 139.066C627.408 139.066 635.147 131.327 635.147 121.78C635.147 112.233 627.408 104.494 617.862 104.494C617.862 104.494 617.862 104.494 617.862 104.494V139.066Z" fill="#1A3B5C"/>
<path d="M601.924 149.613H633.799V234.613H601.924V149.613Z" fill="#3878BC"/>
<path d="M617.862 149.613V234.613H633.799V171.707L649.844 161.752V149.613H617.862Z" fill="#1A3B5C"/>
<path d="M668.643 75.7087L719.424 104.487V234.609L668.643 264.291V75.7087Z" fill="#FE663B"/>
<rect x="668.643" y="104.494" width="50.7813" height="130.119" fill="#EB4D00"/>
</svg>
